# 
# 
mtllib Arrow.mtl
v -0.015607 0.005706 0.937878
v 0.000000 0.012150 0.937878
v -0.015607 -0.005705 0.937878
v 0.000000 -0.012150 0.937878
v -0.012528 -0.003129 1.011283
v -0.012528 0.003130 1.011283
v 0.015607 -0.005705 0.937878
v 0.015607 0.005706 0.937878
v 0.012528 -0.003129 1.011283
v 0.012528 0.003130 1.011283
v 0.058077 0.000000 0.974094
v 0.047161 -0.003129 0.975217
v 0.047161 0.003130 0.975217
v 0.030589 -0.003129 1.009879
v 0.030589 0.003130 1.009879
v 0.021842 0.003130 1.015864
v 0.021842 -0.003129 1.015864
v 0.035281 -0.003129 1.053915
v 0.035281 0.003130 1.053915
v 0.000000 -0.003129 1.053915
v 0.000000 0.003130 1.053915
v 0.000000 -0.012150 1.011283
v -0.021842 -0.003129 1.015864
v -0.035281 -0.003129 1.053915
v -0.030589 -0.003129 1.009879
v -0.021842 0.003130 1.015864
v 0.000000 -0.003129 1.106182
v 0.022969 -0.003129 1.106182
v 0.000000 -0.003129 1.168973
v -0.022969 -0.003129 1.106182
v -0.047161 -0.003129 0.975217
v -0.030589 0.003130 1.009879
v -0.058077 0.000000 0.974094
v -0.047161 0.003130 0.975217
v -0.035281 0.003130 1.053915
v 0.000000 0.003130 1.106182
v -0.022969 0.003130 1.106182
v 0.000000 0.003130 1.168973
v 0.022969 0.003130 1.106182
v 0.000000 0.012150 1.011283
v -0.044814 0.000000 1.053915
v -0.031425 0.000000 1.106182
v -0.011323 0.000000 1.163252
v 0.000000 0.000000 1.181494
v 0.044814 0.000000 1.053915
v 0.031426 0.000000 1.106182
v 0.011323 0.000000 1.163252
v -0.008521 -0.005160 -0.864730
v 0.000037 -0.010711 -0.864730
v -0.008520 -0.005160 0.014922
v 0.000037 -0.010711 0.014922
v 0.008594 -0.005160 -0.864730
v 0.008595 -0.005160 0.014922
v 0.008595 0.003940 0.014922
v 0.008594 0.003940 -0.864730
v 0.000037 0.009490 -0.864730
v 0.000037 0.009491 0.014922
v -0.008521 0.003940 -0.864730
v -0.008520 0.003940 0.014922
v -0.008520 -0.005160 0.480748
v 0.000037 -0.010711 0.480748
v -0.008520 -0.005160 0.959973
v 0.000037 -0.010711 0.959973
v 0.008595 -0.005160 0.480748
v 0.008595 -0.005160 0.959973
v 0.008595 0.003940 0.480748
v 0.008595 0.003940 0.959973
v 0.000037 0.009491 0.480748
v 0.000037 0.009491 0.959973
v -0.008520 0.003940 0.480748
v -0.008520 0.003940 0.959973
v 0.005973 -0.000000 -0.894650
v 0.003000 -0.005150 -0.894650
v 0.000027 -0.000000 -0.894650
v 0.003000 0.005149 -0.894650
v -0.002947 0.005149 -0.894650
v -0.005920 -0.000000 -0.894650
v -0.002947 -0.005150 -0.894650
v -0.019932 0.010997 -0.781559
v -0.000095 -0.001242 -0.781559
v -0.000095 -0.001242 -0.796438
v -0.000095 -0.001242 -0.755148
v -0.028377 0.016206 -0.755148
v -0.028836 0.016490 -0.574658
v -0.044264 0.026008 -0.715696
v -0.000095 -0.001242 -0.574658
v -0.018365 0.010030 -0.550941
v -0.000095 -0.001241 -0.550941
v -0.007569 0.003370 -0.524240
v -0.000095 -0.001242 -0.524240
v -0.020430 0.010190 -0.781559
v -0.000592 -0.002048 -0.796438
v -0.000592 -0.002048 -0.781559
v -0.000592 -0.002048 -0.755148
v -0.028875 0.015400 -0.755148
v -0.000592 -0.002048 -0.574658
v -0.044762 0.025201 -0.715696
v -0.029333 0.015683 -0.574658
v -0.018863 0.009223 -0.550941
v -0.000592 -0.002048 -0.550941
v -0.008067 0.002563 -0.524240
v -0.000592 -0.002048 -0.524240
v -0.001208 -0.029093 -0.781559
v -0.000929 -0.005786 -0.781559
v -0.000929 -0.005786 -0.796437
v -0.000929 -0.005786 -0.755148
v -0.001327 -0.039015 -0.755148
v -0.001333 -0.039554 -0.574658
v -0.001550 -0.057681 -0.715696
v -0.000929 -0.005786 -0.574658
v -0.001186 -0.027252 -0.550941
v -0.000929 -0.005786 -0.550941
v -0.001034 -0.014568 -0.524240
v -0.000929 -0.005786 -0.524240
v -0.000260 -0.029105 -0.781559
v 0.000019 -0.005797 -0.796438
v 0.000019 -0.005797 -0.781559
v 0.000019 -0.005797 -0.755148
v -0.000379 -0.039027 -0.755148
v 0.000019 -0.005797 -0.574658
v -0.000602 -0.057692 -0.715696
v -0.000385 -0.039566 -0.574658
v -0.000238 -0.027263 -0.550941
v 0.000019 -0.005797 -0.550941
v -0.000086 -0.014580 -0.524240
v 0.000019 -0.005797 -0.524240
v 0.018871 0.011395 -0.781559
v 0.000221 -0.002585 -0.781559
v 0.000221 -0.002585 -0.796438
v 0.000221 -0.002585 -0.755148
v 0.026811 0.017347 -0.755148
v 0.027243 0.017670 -0.574658
v 0.041748 0.028543 -0.715696
v 0.000221 -0.002585 -0.574658
v 0.017398 0.010291 -0.550941
v 0.000221 -0.002585 -0.550941
v 0.007248 0.002683 -0.524240
v 0.000221 -0.002585 -0.524240
v 0.018303 0.012154 -0.781559
v -0.000348 -0.001827 -0.796438
v -0.000348 -0.001827 -0.781559
v -0.000348 -0.001827 -0.755148
v 0.026242 0.018105 -0.755148
v -0.000348 -0.001827 -0.574658
v 0.041179 0.029301 -0.715696
v 0.026674 0.018429 -0.574658
v 0.016829 0.011049 -0.550941
v -0.000348 -0.001827 -0.550941
v 0.006680 0.003441 -0.524240
v -0.000348 -0.001827 -0.524240
v 0.003151 0.005411 -0.875013
v -0.003098 0.005411 -0.875013
v 0.004614 0.007946 -0.864730
v -0.004561 0.007946 -0.864730
v -0.006222 -0.000000 -0.875013
v -0.009148 -0.000000 -0.864730
v -0.003098 -0.005411 -0.875013
v -0.004561 -0.007946 -0.864730
v 0.003151 -0.005411 -0.875013
v 0.004614 -0.007946 -0.864730
v 0.006275 -0.000000 -0.875013
v 0.009202 -0.000000 -0.864730
vt 0.989264 0.133280
vt 0.989264 0.152320
vt 0.838368 0.136688
vt 0.989264 0.171360
vt 0.838368 0.168432
vt 0.923344 0.249984
vt 0.921392 0.240704
vt 0.841296 0.220192
vt 0.830080 0.195776
vt 0.758288 0.216768
vt 0.758288 0.152320
vt 0.846192 0.152320
vt 0.830080 0.109344
vt 0.758288 0.085904
vt 0.841296 0.086880
vt 0.656720 0.152800
vt 0.656720 0.196272
vt 0.535632 0.153776
vt 0.656720 0.108864
vt 0.925296 0.057104
vt 0.927728 0.043920
vt 0.758288 0.064432
vt 0.656240 0.086880
vt 0.547344 0.129856
vt 0.500960 0.153776
vt 0.758288 0.234352
vt 0.656240 0.214816
vt 0.547344 0.177712
vt 0.005376 1.541520
vt 0.036624 1.541520
vt 0.005376 0.003872
vt 0.036624 0.003872
vt 0.067872 1.541520
vt 0.067872 0.003872
vt 0.130864 0.003872
vt 0.130864 1.541520
vt 0.162112 1.541520
vt 0.162112 0.003872
vt 0.193360 1.541520
vt 0.193360 0.003872
vt 0.245616 0.003872
vt 0.245616 1.541520
vt 0.075680 0.484848
vt 0.088864 0.478496
vt 0.102048 0.484848
vt 0.102048 0.510720
vt 0.075680 0.510720
vt 0.088864 0.517072
vt 0.255376 1.541520
vt 0.286624 1.541520
vt 0.255376 0.876944
vt 0.286624 0.876944
vt 0.255376 0.008272
vt 0.317888 1.541520
vt 0.286624 0.008272
vt 0.317888 0.876944
vt 0.317888 0.008272
vt 0.380384 0.876944
vt 0.380384 1.541520
vt 0.380384 0.008272
vt 0.411632 1.541520
vt 0.411632 0.876944
vt 0.411632 0.008272
vt 0.442880 1.541520
vt 0.442880 0.876944
vt 0.442880 0.008272
vt 0.495136 0.876944
vt 0.495136 1.541520
vt 0.495136 0.008272
vt 1.802304 0.121072
vt 1.776416 0.121552
vt 1.725632 0.122048
vt 1.674848 0.123024
vt 1.648480 0.123504
vt 1.700240 0.122528
vt 1.750544 0.122048
vt 0.839376 0.960944
vt 0.765648 0.960944
vt 0.765648 0.997552
vt 0.765648 0.895504
vt 0.871120 0.895504
vt 0.873072 0.449200
vt 0.930688 0.797840
vt 0.765648 0.449200
vt 0.833520 0.390608
vt 0.765648 0.390608
vt 0.793488 0.324688
vt 0.765648 0.324688
vt 0.841328 0.960944
vt 0.767120 0.997552
vt 0.767120 0.960944
vt 0.767120 0.895504
vt 0.873072 0.895504
vt 0.767120 0.449200
vt 0.932640 0.797840
vt 0.874544 0.449200
vt 0.835472 0.390608
vt 0.767120 0.390608
vt 0.795440 0.324688
vt 0.767120 0.324688
vt 0.839872 0.959952
vt 0.766144 0.959952
vt 0.766144 0.996576
vt 0.766144 0.894528
vt 0.871616 0.894528
vt 0.873072 0.448720
vt 0.930688 0.796864
vt 0.766144 0.448720
vt 0.834016 0.390112
vt 0.766144 0.390112
vt 0.793968 0.324192
vt 0.766144 0.324192
vt 0.694352 0.960944
vt 0.764176 0.960944
vt 0.764176 0.997552
vt 0.764176 0.895504
vt 0.665056 0.895504
vt 0.663104 0.449200
vt 0.608912 0.797840
vt 0.764176 0.449200
vt 0.700224 0.390608
vt 0.764176 0.390608
vt 0.737808 0.324688
vt 0.764176 0.324688
vt 0.696800 0.960944
vt 0.766624 0.997552
vt 0.766624 0.960944
vt 0.766624 0.895504
vt 0.667008 0.895504
vt 0.766624 0.449200
vt 0.611344 0.797840
vt 0.665552 0.449200
vt 0.702176 0.390608
vt 0.766624 0.390608
vt 0.740256 0.324688
vt 0.766624 0.324688
vt 1.675344 0.166480
vt 1.701216 0.165984
vt 1.675840 0.188944
vt 1.701216 0.188944
vt 1.726128 0.165504
vt 1.726608 0.188448
vt 1.751520 0.165008
vt 1.752000 0.187968
vt 1.776912 0.164528
vt 1.777392 0.187472
vt 1.803280 0.164032
vt 1.828176 0.120576
vt 1.803280 0.186992
vt 1.829152 0.164032
vt 1.829152 0.186496
vn -0.675924 0.454146 -0.580340
vn 0.000000 0.789605 -0.613575
vn -0.675924 -0.454146 -0.580340
vn 0.000000 -0.789605 -0.613575
vn -0.707785 -0.678152 -0.197760
vn -0.707785 0.678152 -0.197760
vn 0.675924 -0.454146 -0.580340
vn 0.675924 0.454146 -0.580340
vn 0.707785 -0.678152 -0.197760
vn 0.707785 0.678152 -0.197760
vn 0.844264 0.000000 -0.535905
vn -0.351054 -0.687674 -0.635456
vn -0.351054 0.687674 -0.635456
vn -0.484146 -0.770409 -0.414777
vn -0.484146 0.770409 -0.414777
vn -0.038728 0.839930 -0.541276
vn -0.038728 -0.839930 -0.541276
vn 0.162633 -0.986084 0.033906
vn 0.162633 0.986084 0.033906
vn 0.000000 -0.999817 0.018983
vn 0.000000 0.999817 0.018983
vn 0.000000 -0.994934 0.100253
vn 0.038728 -0.839930 -0.541276
vn -0.162633 -0.986084 0.033906
vn 0.484146 -0.770409 -0.414777
vn 0.038728 0.839930 -0.541276
vn 0.000000 -1.000000 0.000000
vn 0.181280 -0.981872 0.055116
vn 0.000000 -0.983032 0.183386
vn -0.181280 -0.981872 0.055116
vn 0.351054 -0.687674 -0.635456
vn 0.484146 0.770409 -0.414777
vn -0.844264 0.000000 -0.535905
vn 0.351054 0.687674 -0.635456
vn -0.162633 0.986084 0.033906
vn 0.000000 1.000000 0.000000
vn -0.181280 0.981872 0.055086
vn 0.000000 0.983032 0.183386
vn 0.181280 0.981872 0.055086
vn 0.000000 0.994934 0.100253
vn -0.981017 0.000000 0.193793
vn -0.961760 0.000000 0.273812
vn -0.921323 0.000000 0.388714
vn 0.000000 0.000000 1.000000
vn 0.981017 0.000000 0.193793
vn 0.961760 0.000000 0.273812
vn 0.921323 0.000000 0.388714
vn -0.693686 -0.376873 -0.613788
vn 0.000000 -0.797937 -0.602680
vn -0.878689 -0.477371 0.000000
vn 0.693686 -0.376873 -0.613788
vn 0.878689 -0.477371 0.000000
vn 0.878689 0.477371 0.000000
vn 0.693686 0.376873 -0.613788
vn 0.000000 0.797937 -0.602680
vn -0.693686 0.376873 -0.613788
vn -0.878689 0.477371 0.000000
vn 0.787896 0.000000 -0.615741
vn 0.393933 -0.682363 -0.615772
vn 0.000000 0.000000 -1.000000
vn 0.393933 0.682363 -0.615772
vn -0.393933 0.682333 -0.615772
vn -0.787896 0.000000 -0.615772
vn -0.393933 -0.682333 -0.615772
vn 0.525040 0.851070 0.000000
vn 0.525040 0.851039 0.000000
vn -0.525040 -0.851070 0.000000
vn -0.999908 0.011933 0.000000
vn -0.999908 0.011963 0.000000
vn 0.999908 -0.011933 0.000000
vn 0.999908 -0.011963 0.000000
vn 0.599780 -0.800134 0.000000
vn -0.599780 0.800134 0.000000
vn 0.494156 0.855922 -0.152196
vn -0.494156 0.855922 -0.152196
vn 0.480880 0.832911 -0.273782
vn -0.480880 0.832911 -0.273782
vn -0.988342 0.000000 -0.152165
vn -0.961791 0.000000 -0.273721
vn -0.494156 -0.855922 -0.152196
vn -0.480880 -0.832942 -0.273751
vn 0.494156 -0.855922 -0.152196
vn 0.480880 -0.832942 -0.273751
vn 0.988342 0.000000 -0.152196
vn 0.961791 0.000000 -0.273751
usemtl arrow
s 1
f 1/1/1 2/2/2 3/1/3
f 3/1/3 2/2/2 4/2/4
f 5/3/5 1/1/1 3/1/3
f 1/1/1 5/3/5 6/3/6
f 7/4/7 4/2/4 8/4/8
f 8/4/8 4/2/4 2/2/2
f 9/5/9 7/4/7 10/5/10
f 10/5/10 7/4/7 8/4/8
f 11/6/11 12/7/12 13/7/13
f 14/8/14 13/7/13 12/7/12
f 15/8/15 13/7/13 14/8/14
f 16/9/16 15/8/15 17/9/17
f 17/9/17 15/8/15 14/8/14
f 14/8/14 12/7/12 18/10/18
f 14/8/14 18/10/18 17/9/17
f 15/8/15 19/10/19 13/7/13
f 19/10/19 15/8/15 16/9/16
f 20/11/20 17/9/17 18/10/18
f 16/9/16 21/11/21 19/10/19
f 20/11/20 9/5/9 17/9/17
f 10/5/10 21/11/21 16/9/16
f 9/5/9 16/9/16 17/9/17
f 10/5/10 16/9/16 9/5/9
f 9/5/9 4/2/4 7/4/7
f 22/12/22 4/2/4 9/5/9
f 20/11/20 22/12/22 9/5/9
f 22/12/22 5/3/5 4/2/4
f 4/2/4 5/3/5 3/1/3
f 20/11/20 5/3/5 22/12/22
f 20/11/20 23/13/23 5/3/5
f 24/14/24 25/15/25 23/13/23
f 20/11/20 24/14/24 23/13/23
f 23/13/23 6/3/6 5/3/5
f 26/13/26 6/3/6 23/13/23
f 27/16/27 24/14/24 20/11/20
f 27/16/27 20/11/20 18/10/18
f 27/16/27 18/10/18 28/17/28
f 29/18/29 27/16/27 28/17/28
f 30/19/30 27/16/27 29/18/29
f 27/16/27 30/19/30 24/14/24
f 25/15/25 24/14/24 31/20/31
f 25/15/25 26/13/26 23/13/23
f 32/15/32 26/13/26 25/15/25
f 31/20/31 32/15/32 25/15/25
f 33/21/33 34/20/34 31/20/31
f 34/20/34 32/15/32 31/20/31
f 32/15/32 34/20/34 35/14/35
f 32/15/32 35/14/35 26/13/26
f 26/13/26 35/14/35 21/11/21
f 6/3/6 26/13/26 21/11/21
f 21/11/21 35/14/35 36/16/36
f 35/14/35 37/19/37 36/16/36
f 38/18/38 36/16/36 37/19/37
f 39/17/39 36/16/36 38/18/38
f 39/17/39 19/10/19 36/16/36
f 21/11/21 36/16/36 19/10/19
f 40/12/40 6/3/6 21/11/21
f 40/12/40 21/11/21 10/5/10
f 2/2/2 6/3/6 40/12/40
f 10/5/10 2/2/2 40/12/40
f 1/1/1 6/3/6 2/2/2
f 8/4/8 2/2/2 10/5/10
f 31/20/31 41/22/41 33/21/33
f 24/14/24 41/22/41 31/20/31
f 24/14/24 42/23/42 41/22/41
f 30/19/30 42/23/42 24/14/24
f 30/19/30 43/24/43 42/23/42
f 29/18/29 43/24/43 30/19/30
f 29/18/29 44/25/44 43/24/43
f 41/22/41 34/20/34 33/21/33
f 35/14/35 34/20/34 41/22/41
f 41/22/41 42/23/42 35/14/35
f 35/14/35 42/23/42 37/19/37
f 43/24/43 37/19/37 42/23/42
f 38/18/38 37/19/37 43/24/43
f 44/25/44 38/18/38 43/24/43
f 45/26/45 12/7/12 11/6/11
f 18/10/18 12/7/12 45/26/45
f 46/27/46 18/10/18 45/26/45
f 28/17/28 18/10/18 46/27/46
f 47/28/47 28/17/28 46/27/46
f 29/18/29 28/17/28 47/28/47
f 44/25/44 29/18/29 47/28/47
f 11/6/11 13/7/13 45/26/45
f 45/26/45 13/7/13 19/10/19
f 45/26/45 19/10/19 46/27/46
f 46/27/46 19/10/19 39/17/39
f 39/17/39 47/28/47 46/27/46
f 38/18/38 47/28/47 39/17/39
f 38/18/38 44/25/44 47/28/47
f 48/29/48 49/30/49 50/31/50
f 50/31/50 49/30/49 51/32/27
f 49/30/49 52/33/51 51/32/27
f 51/32/27 52/33/51 53/34/52
f 53/34/52 52/33/51 54/35/53
f 54/35/53 52/33/51 55/36/54
f 55/36/54 56/37/55 54/35/53
f 54/35/53 56/37/55 57/38/36
f 56/37/55 58/39/56 57/38/36
f 57/38/36 58/39/56 59/40/57
f 59/40/57 58/39/56 50/41/50
f 50/41/50 58/39/56 48/42/48
f 52/43/51 49/44/49 48/45/48
f 48/45/48 58/46/56 52/43/51
f 52/43/51 58/46/56 55/47/54
f 58/46/56 56/48/55 55/47/54
f 50/49/50 51/50/27 60/51/50
f 60/51/50 51/50/27 61/52/27
f 60/51/50 61/52/27 62/53/50
f 51/50/27 53/54/52 61/52/27
f 62/53/50 61/52/27 63/55/27
f 61/52/27 64/56/52 63/55/27
f 61/52/27 53/54/52 64/56/52
f 63/55/27 64/56/52 65/57/52
f 64/56/52 53/54/52 66/58/53
f 66/58/53 65/57/52 64/56/52
f 66/58/53 53/54/52 54/59/53
f 67/60/53 65/57/52 66/58/53
f 54/59/53 57/61/36 66/58/53
f 66/58/53 68/62/36 67/60/53
f 66/58/53 57/61/36 68/62/36
f 67/60/53 68/62/36 69/63/36
f 57/61/36 59/64/57 68/62/36
f 68/62/36 70/65/57 69/63/36
f 68/62/36 59/64/57 70/65/57
f 69/63/36 70/65/57 71/66/57
f 70/65/57 59/64/57 60/67/50
f 60/67/50 71/66/57 70/65/57
f 60/67/50 59/64/57 50/68/50
f 62/69/50 71/66/57 60/67/50
f 72/70/58 73/71/59 74/72/60
f 75/73/61 72/74/58 74/72/60
f 76/75/62 75/73/61 74/72/60
f 77/72/63 76/75/62 74/72/60
f 78/76/64 77/72/63 74/72/60
f 73/71/59 78/76/64 74/72/60
f 79/77/65 80/78/65 81/79/65
f 79/77/65 82/80/65 80/78/65
f 83/81/65 82/80/65 79/77/65
f 82/80/65 83/81/65 84/82/65
f 85/83/66 84/82/65 83/81/65
f 86/84/65 82/80/65 84/82/65
f 84/82/65 87/85/65 86/84/65
f 86/84/65 87/85/65 88/86/65
f 89/87/65 88/86/65 87/85/65
f 90/88/65 88/86/65 89/87/65
f 91/89/67 92/90/67 93/91/67
f 94/92/67 91/89/67 93/91/67
f 95/93/67 91/89/67 94/92/67
f 94/92/67 96/94/67 95/93/67
f 95/93/67 96/94/67 97/95/67
f 97/95/67 96/94/67 98/96/67
f 98/96/67 96/94/67 99/97/67
f 99/97/67 96/94/67 100/98/67
f 99/97/67 100/98/67 101/99/67
f 101/99/67 100/98/67 102/100/67
f 103/101/68 104/102/68 105/103/68
f 103/101/68 106/104/68 104/102/68
f 107/105/68 106/104/68 103/101/68
f 106/104/68 107/105/68 108/106/68
f 109/107/69 108/106/68 107/105/68
f 110/108/68 106/104/68 108/106/68
f 108/106/68 111/109/68 110/108/68
f 110/108/68 111/109/68 112/110/68
f 113/111/68 112/110/68 111/109/68
f 114/112/68 112/110/68 113/111/68
f 115/101/70 116/103/71 117/102/71
f 118/104/70 115/101/70 117/102/71
f 119/105/70 115/101/70 118/104/70
f 118/104/70 120/108/71 119/105/70
f 119/105/70 120/108/71 121/107/71
f 121/107/71 120/108/71 122/106/71
f 122/106/71 120/108/71 123/109/71
f 123/109/71 120/108/71 124/110/71
f 123/109/71 124/110/71 125/111/70
f 125/111/70 124/110/71 126/112/70
f 127/113/72 128/114/72 129/115/72
f 127/113/72 130/116/72 128/114/72
f 131/117/72 130/116/72 127/113/72
f 130/116/72 131/117/72 132/118/72
f 133/119/72 132/118/72 131/117/72
f 134/120/72 130/116/72 132/118/72
f 132/118/72 135/121/72 134/120/72
f 134/120/72 135/121/72 136/122/72
f 137/123/72 136/122/72 135/121/72
f 138/124/72 136/122/72 137/123/72
f 139/125/73 140/126/73 141/127/73
f 142/128/73 139/125/73 141/127/73
f 143/129/73 139/125/73 142/128/73
f 142/128/73 144/130/73 143/129/73
f 143/129/73 144/130/73 145/131/73
f 145/131/73 144/130/73 146/132/73
f 146/132/73 144/130/73 147/133/73
f 147/133/73 144/130/73 148/134/73
f 147/133/73 148/134/73 149/135/73
f 149/135/73 148/134/73 150/136/73
f 75/73/61 76/75/62 151/137/74
f 151/137/74 76/75/62 152/138/75
f 151/137/74 152/138/75 153/139/76
f 76/75/62 77/72/63 152/138/75
f 153/139/76 152/138/75 154/140/77
f 152/138/75 77/72/63 155/141/78
f 152/138/75 155/141/78 154/140/77
f 77/72/63 78/76/64 155/141/78
f 154/140/77 155/141/78 156/142/79
f 155/141/78 78/76/64 157/143/80
f 155/141/78 157/143/80 156/142/79
f 78/76/64 73/71/59 157/143/80
f 156/142/79 157/143/80 158/144/81
f 157/143/80 73/71/59 159/145/82
f 157/143/80 159/145/82 158/144/81
f 73/71/59 72/70/58 159/145/82
f 158/144/81 159/145/82 160/146/83
f 159/145/82 72/70/58 161/147/84
f 159/145/82 161/147/84 160/146/83
f 72/70/58 75/148/61 161/147/84
f 160/146/83 161/147/84 162/149/85
f 161/147/84 75/148/61 151/150/74
f 161/147/84 151/150/74 162/149/85
f 162/149/85 151/150/74 153/151/76
